<?xml version="1.0" standalone="no"?>
<!DOCTYPE svg PUBLIC "-//W3C//DTD SVG 20010904//EN"
 "http://www.w3.org/TR/2001/REC-SVG-20010904/DTD/svg10.dtd">
<svg version="1.0" xmlns="http://www.w3.org/2000/svg"
 width="1039.000000pt" height="816.000000pt" viewBox="0 0 1039.000000 816.000000"
 preserveAspectRatio="xMidYMid meet">

<g transform="translate(0.000000,816.000000) scale(0.100000,-0.100000)"
fill="#000000" stroke="none">
<path d="M9270 7991 c-78 -24 -155 -80 -199 -145 -15 -22 -500 -1095 -1077
-2383 -577 -1288 -1052 -2339 -1055 -2335 -3 4 -23 46 -44 95 -21 48 -41 87
-45 87 -4 0 -143 -304 -309 -675 -272 -605 -302 -678 -293 -702 29 -78 112
-257 128 -274 34 -38 73 -40 539 -37 l450 3 63 34 c73 40 129 99 164 174 14
28 625 1391 1358 3026 1437 3205 1365 3036 1315 3091 -43 49 -54 50 -527 49
-244 0 -454 -4 -468 -8z"/>
<path d="M4450 6511 c-118 -36 -195 -113 -255 -253 -16 -38 -32 -68 -36 -68
-3 0 -26 45 -51 100 -41 91 -58 112 -58 72 0 -8 -133 -311 -295 -673 -162
-362 -295 -663 -295 -670 0 -6 18 -51 40 -100 22 -49 40 -96 40 -105 0 -9
-453 -1027 -1007 -2262 -1095 -2443 -1039 -2308 -984 -2366 14 -15 41 -31 60
-37 24 -7 194 -9 486 -7 l450 3 63 34 c71 39 130 99 162 168 12 26 325 724
696 1551 371 827 679 1513 685 1524 9 17 65 -101 380 -803 203 -453 375 -837
383 -854 l14 -30 7 30 c4 17 140 326 301 687 162 361 294 659 294 662 0 2
-171 385 -379 850 l-379 846 42 95 c24 53 45 98 48 100 3 3 175 -375 383 -840
213 -474 382 -839 386 -832 4 6 142 314 307 683 l301 671 -383 855 c-211 470
-387 868 -390 885 -8 35 -39 67 -79 82 -33 13 -897 14 -937 2z"/>
</g>
</svg>
